<mxfile host="app.diagrams.net" modified="2023-04-12T23:31:18.092Z" agent="Mozilla/5.0 (Windows NT 10.0; Win64; x64) AppleWebKit/537.36 (KHTML, like Gecko) Chrome/111.0.0.0 Safari/537.36" etag="qoYVbdfXUAmTP-u1iFsb" version="21.1.7" type="google">
  <diagram name="PÃ¡gina-1" id="KVIhtWQZbb9y_k68hsxU">
    <mxGraphModel grid="1" page="1" gridSize="10" guides="1" tooltips="1" connect="1" arrows="1" fold="1" pageScale="1" pageWidth="827" pageHeight="1169" math="0" shadow="0">
      <root>
        <mxCell id="0" />
        <mxCell id="1" parent="0" />
        <mxCell id="TYD1DtTi4bZ0jpeWZFOA-5" style="edgeStyle=orthogonalEdgeStyle;rounded=0;orthogonalLoop=1;jettySize=auto;html=1;exitX=1;exitY=0.25;exitDx=0;exitDy=0;entryX=0.014;entryY=0.393;entryDx=0;entryDy=0;entryPerimeter=0;" edge="1" parent="1" source="TYD1DtTi4bZ0jpeWZFOA-1" target="TYD1DtTi4bZ0jpeWZFOA-3">
          <mxGeometry relative="1" as="geometry" />
        </mxCell>
        <mxCell id="TYD1DtTi4bZ0jpeWZFOA-6" style="edgeStyle=orthogonalEdgeStyle;rounded=0;orthogonalLoop=1;jettySize=auto;html=1;exitX=1;exitY=0.75;exitDx=0;exitDy=0;entryX=0.019;entryY=0.607;entryDx=0;entryDy=0;entryPerimeter=0;endArrow=none;endFill=0;startArrow=classic;startFill=1;" edge="1" parent="1" source="TYD1DtTi4bZ0jpeWZFOA-1" target="TYD1DtTi4bZ0jpeWZFOA-3">
          <mxGeometry relative="1" as="geometry" />
        </mxCell>
        <mxCell id="TYD1DtTi4bZ0jpeWZFOA-1" value="cliente" style="rounded=0;whiteSpace=wrap;html=1;" vertex="1" parent="1">
          <mxGeometry x="40" y="200" width="120" height="60" as="geometry" />
        </mxCell>
        <mxCell id="TYD1DtTi4bZ0jpeWZFOA-2" value="Nivel 0" style="text;html=1;strokeColor=none;fillColor=none;align=center;verticalAlign=middle;whiteSpace=wrap;rounded=0;" vertex="1" parent="1">
          <mxGeometry x="50" y="10" width="60" height="30" as="geometry" />
        </mxCell>
        <mxCell id="TYD1DtTi4bZ0jpeWZFOA-3" value="PAGINA WEB VENTA DE PINTURAS" style="ellipse;whiteSpace=wrap;html=1;rounded=0;" vertex="1" parent="1">
          <mxGeometry x="309" y="160" width="210" height="140" as="geometry" />
        </mxCell>
        <mxCell id="TYD1DtTi4bZ0jpeWZFOA-7" style="edgeStyle=orthogonalEdgeStyle;rounded=0;orthogonalLoop=1;jettySize=auto;html=1;exitX=0;exitY=0.25;exitDx=0;exitDy=0;" edge="1" parent="1" source="TYD1DtTi4bZ0jpeWZFOA-4">
          <mxGeometry relative="1" as="geometry">
            <mxPoint x="520" y="215" as="targetPoint" />
          </mxGeometry>
        </mxCell>
        <mxCell id="TYD1DtTi4bZ0jpeWZFOA-8" style="edgeStyle=orthogonalEdgeStyle;rounded=0;orthogonalLoop=1;jettySize=auto;html=1;exitX=0;exitY=0.75;exitDx=0;exitDy=0;startArrow=classic;startFill=1;endArrow=none;endFill=0;" edge="1" parent="1" source="TYD1DtTi4bZ0jpeWZFOA-4">
          <mxGeometry relative="1" as="geometry">
            <mxPoint x="520" y="245" as="targetPoint" />
          </mxGeometry>
        </mxCell>
        <mxCell id="TYD1DtTi4bZ0jpeWZFOA-4" value="productor" style="rounded=0;whiteSpace=wrap;html=1;" vertex="1" parent="1">
          <mxGeometry x="660" y="200" width="120" height="60" as="geometry" />
        </mxCell>
        <mxCell id="TYD1DtTi4bZ0jpeWZFOA-9" value="Nivel 1" style="text;html=1;strokeColor=none;fillColor=none;align=center;verticalAlign=middle;whiteSpace=wrap;rounded=0;" vertex="1" parent="1">
          <mxGeometry x="50" y="320" width="60" height="30" as="geometry" />
        </mxCell>
        <mxCell id="TYD1DtTi4bZ0jpeWZFOA-10" value="0" style="text;html=1;strokeColor=none;fillColor=none;align=center;verticalAlign=middle;whiteSpace=wrap;rounded=0;" vertex="1" parent="1">
          <mxGeometry x="384" y="160" width="60" height="30" as="geometry" />
        </mxCell>
        <mxCell id="TYD1DtTi4bZ0jpeWZFOA-25" style="rounded=0;orthogonalLoop=1;jettySize=auto;html=1;exitX=1;exitY=0.25;exitDx=0;exitDy=0;entryX=-0.008;entryY=0.6;entryDx=0;entryDy=0;entryPerimeter=0;" edge="1" parent="1" source="TYD1DtTi4bZ0jpeWZFOA-13" target="TYD1DtTi4bZ0jpeWZFOA-19">
          <mxGeometry relative="1" as="geometry" />
        </mxCell>
        <mxCell id="TYD1DtTi4bZ0jpeWZFOA-28" style="rounded=0;orthogonalLoop=1;jettySize=auto;html=1;exitX=1;exitY=0.75;exitDx=0;exitDy=0;entryX=0.033;entryY=0.313;entryDx=0;entryDy=0;entryPerimeter=0;strokeColor=default;" edge="1" parent="1" source="TYD1DtTi4bZ0jpeWZFOA-13" target="TYD1DtTi4bZ0jpeWZFOA-26">
          <mxGeometry relative="1" as="geometry" />
        </mxCell>
        <mxCell id="TYD1DtTi4bZ0jpeWZFOA-13" value="cliente" style="rounded=0;whiteSpace=wrap;html=1;" vertex="1" parent="1">
          <mxGeometry x="40" y="500" width="120" height="60" as="geometry" />
        </mxCell>
        <mxCell id="TYD1DtTi4bZ0jpeWZFOA-37" style="edgeStyle=none;orthogonalLoop=1;jettySize=auto;html=1;exitX=0;exitY=0;exitDx=0;exitDy=0;entryX=0.975;entryY=0.675;entryDx=0;entryDy=0;entryPerimeter=0;" edge="1" parent="1" source="TYD1DtTi4bZ0jpeWZFOA-17" target="TYD1DtTi4bZ0jpeWZFOA-35">
          <mxGeometry relative="1" as="geometry" />
        </mxCell>
        <mxCell id="TYD1DtTi4bZ0jpeWZFOA-17" value="productor" style="rounded=0;whiteSpace=wrap;html=1;" vertex="1" parent="1">
          <mxGeometry x="660" y="500" width="120" height="60" as="geometry" />
        </mxCell>
        <mxCell id="TYD1DtTi4bZ0jpeWZFOA-24" style="rounded=0;orthogonalLoop=1;jettySize=auto;html=1;exitX=1;exitY=0;exitDx=0;exitDy=0;entryX=0;entryY=1;entryDx=0;entryDy=0;" edge="1" parent="1" source="TYD1DtTi4bZ0jpeWZFOA-19" target="TYD1DtTi4bZ0jpeWZFOA-21">
          <mxGeometry relative="1" as="geometry" />
        </mxCell>
        <mxCell id="TYD1DtTi4bZ0jpeWZFOA-19" value="Registrar Usuario" style="ellipse;whiteSpace=wrap;html=1;rounded=0;" vertex="1" parent="1">
          <mxGeometry x="230" y="440" width="120" height="80" as="geometry" />
        </mxCell>
        <mxCell id="TYD1DtTi4bZ0jpeWZFOA-20" value="1" style="text;html=1;strokeColor=none;fillColor=none;align=center;verticalAlign=middle;whiteSpace=wrap;rounded=0;" vertex="1" parent="1">
          <mxGeometry x="260.5" y="440" width="60" height="30" as="geometry" />
        </mxCell>
        <mxCell id="TYD1DtTi4bZ0jpeWZFOA-21" value="Datos cliente" style="text;html=1;strokeColor=none;fillColor=none;align=center;verticalAlign=middle;whiteSpace=wrap;rounded=0;" vertex="1" parent="1">
          <mxGeometry x="370" y="400" width="60" height="30" as="geometry" />
        </mxCell>
        <mxCell id="TYD1DtTi4bZ0jpeWZFOA-22" value="" style="endArrow=none;html=1;rounded=0;entryX=1;entryY=0;entryDx=0;entryDy=0;exitX=0;exitY=0;exitDx=0;exitDy=0;" edge="1" parent="1" source="TYD1DtTi4bZ0jpeWZFOA-21" target="TYD1DtTi4bZ0jpeWZFOA-21">
          <mxGeometry width="50" height="50" relative="1" as="geometry">
            <mxPoint x="350" y="520" as="sourcePoint" />
            <mxPoint x="400" y="470" as="targetPoint" />
          </mxGeometry>
        </mxCell>
        <mxCell id="TYD1DtTi4bZ0jpeWZFOA-23" value="" style="endArrow=none;html=1;rounded=0;entryX=1;entryY=0;entryDx=0;entryDy=0;exitX=0;exitY=0;exitDx=0;exitDy=0;" edge="1" parent="1">
          <mxGeometry width="50" height="50" relative="1" as="geometry">
            <mxPoint x="370" y="430" as="sourcePoint" />
            <mxPoint x="430" y="430" as="targetPoint" />
          </mxGeometry>
        </mxCell>
        <mxCell id="TYD1DtTi4bZ0jpeWZFOA-32" style="edgeStyle=none;orthogonalLoop=1;jettySize=auto;html=1;exitX=0.742;exitY=0.05;exitDx=0;exitDy=0;endArrow=none;endFill=0;startArrow=classic;startFill=1;exitPerimeter=0;" edge="1" parent="1" source="TYD1DtTi4bZ0jpeWZFOA-26" target="TYD1DtTi4bZ0jpeWZFOA-21">
          <mxGeometry relative="1" as="geometry" />
        </mxCell>
        <mxCell id="TYD1DtTi4bZ0jpeWZFOA-33" style="edgeStyle=none;orthogonalLoop=1;jettySize=auto;html=1;exitX=1;exitY=0.5;exitDx=0;exitDy=0;entryX=0;entryY=0.5;entryDx=0;entryDy=0;" edge="1" parent="1" source="TYD1DtTi4bZ0jpeWZFOA-26" target="TYD1DtTi4bZ0jpeWZFOA-30">
          <mxGeometry relative="1" as="geometry" />
        </mxCell>
        <mxCell id="TYD1DtTi4bZ0jpeWZFOA-26" value="Logear" style="ellipse;whiteSpace=wrap;html=1;rounded=0;" vertex="1" parent="1">
          <mxGeometry x="230" y="560" width="120" height="80" as="geometry" />
        </mxCell>
        <mxCell id="TYD1DtTi4bZ0jpeWZFOA-27" value="1" style="text;html=1;strokeColor=none;fillColor=none;align=center;verticalAlign=middle;whiteSpace=wrap;rounded=0;" vertex="1" parent="1">
          <mxGeometry x="260.5" y="560" width="60" height="30" as="geometry" />
        </mxCell>
        <mxCell id="TYD1DtTi4bZ0jpeWZFOA-30" value="Compar pintura" style="ellipse;whiteSpace=wrap;html=1;" vertex="1" parent="1">
          <mxGeometry x="410.5" y="545" width="120" height="80" as="geometry" />
        </mxCell>
        <mxCell id="TYD1DtTi4bZ0jpeWZFOA-31" value="1" style="text;html=1;strokeColor=none;fillColor=none;align=center;verticalAlign=middle;whiteSpace=wrap;rounded=0;" vertex="1" parent="1">
          <mxGeometry x="440.5" y="545" width="60" height="30" as="geometry" />
        </mxCell>
        <mxCell id="TYD1DtTi4bZ0jpeWZFOA-44" style="edgeStyle=none;orthogonalLoop=1;jettySize=auto;html=1;exitX=0;exitY=0.5;exitDx=0;exitDy=0;" edge="1" parent="1" source="TYD1DtTi4bZ0jpeWZFOA-35" target="TYD1DtTi4bZ0jpeWZFOA-39">
          <mxGeometry relative="1" as="geometry" />
        </mxCell>
        <mxCell id="TYD1DtTi4bZ0jpeWZFOA-35" value="Ingresar pintura" style="ellipse;whiteSpace=wrap;html=1;" vertex="1" parent="1">
          <mxGeometry x="480" y="410" width="120" height="80" as="geometry" />
        </mxCell>
        <mxCell id="TYD1DtTi4bZ0jpeWZFOA-36" value="1" style="text;html=1;strokeColor=none;fillColor=none;align=center;verticalAlign=middle;whiteSpace=wrap;rounded=0;" vertex="1" parent="1">
          <mxGeometry x="510.5" y="410" width="60" height="30" as="geometry" />
        </mxCell>
        <mxCell id="TYD1DtTi4bZ0jpeWZFOA-42" value="" style="edgeStyle=none;orthogonalLoop=1;jettySize=auto;html=1;" edge="1" parent="1" source="TYD1DtTi4bZ0jpeWZFOA-39" target="TYD1DtTi4bZ0jpeWZFOA-31">
          <mxGeometry relative="1" as="geometry" />
        </mxCell>
        <mxCell id="TYD1DtTi4bZ0jpeWZFOA-39" value="Pinturas" style="text;html=1;strokeColor=none;fillColor=none;align=center;verticalAlign=middle;whiteSpace=wrap;rounded=0;" vertex="1" parent="1">
          <mxGeometry x="390" y="470" width="60" height="30" as="geometry" />
        </mxCell>
        <mxCell id="TYD1DtTi4bZ0jpeWZFOA-40" value="" style="endArrow=none;html=1;rounded=0;entryX=1;entryY=0;entryDx=0;entryDy=0;exitX=0;exitY=0;exitDx=0;exitDy=0;" edge="1" parent="1" source="TYD1DtTi4bZ0jpeWZFOA-39" target="TYD1DtTi4bZ0jpeWZFOA-39">
          <mxGeometry width="50" height="50" relative="1" as="geometry">
            <mxPoint x="370" y="590" as="sourcePoint" />
            <mxPoint x="420" y="540" as="targetPoint" />
          </mxGeometry>
        </mxCell>
        <mxCell id="TYD1DtTi4bZ0jpeWZFOA-41" value="" style="endArrow=none;html=1;rounded=0;entryX=1;entryY=0;entryDx=0;entryDy=0;exitX=0;exitY=0;exitDx=0;exitDy=0;" edge="1" parent="1">
          <mxGeometry width="50" height="50" relative="1" as="geometry">
            <mxPoint x="390" y="500" as="sourcePoint" />
            <mxPoint x="450" y="500" as="targetPoint" />
          </mxGeometry>
        </mxCell>
        <mxCell id="TYD1DtTi4bZ0jpeWZFOA-56" value="" style="edgeStyle=none;orthogonalLoop=1;jettySize=auto;html=1;" edge="1" parent="1" source="TYD1DtTi4bZ0jpeWZFOA-47" target="TYD1DtTi4bZ0jpeWZFOA-54">
          <mxGeometry relative="1" as="geometry" />
        </mxCell>
        <mxCell id="TYD1DtTi4bZ0jpeWZFOA-60" value="" style="edgeStyle=none;orthogonalLoop=1;jettySize=auto;html=1;entryX=0;entryY=0.363;entryDx=0;entryDy=0;entryPerimeter=0;" edge="1" parent="1" source="TYD1DtTi4bZ0jpeWZFOA-47" target="TYD1DtTi4bZ0jpeWZFOA-58">
          <mxGeometry relative="1" as="geometry" />
        </mxCell>
        <mxCell id="TYD1DtTi4bZ0jpeWZFOA-47" value="cliente" style="rounded=0;whiteSpace=wrap;html=1;" vertex="1" parent="1">
          <mxGeometry x="40" y="860" width="120" height="60" as="geometry" />
        </mxCell>
        <mxCell id="TYD1DtTi4bZ0jpeWZFOA-48" value="Nivel 0" style="text;html=1;strokeColor=none;fillColor=none;align=center;verticalAlign=middle;whiteSpace=wrap;rounded=0;" vertex="1" parent="1">
          <mxGeometry x="50" y="670" width="60" height="30" as="geometry" />
        </mxCell>
        <mxCell id="TYD1DtTi4bZ0jpeWZFOA-79" value="" style="edgeStyle=none;orthogonalLoop=1;jettySize=auto;html=1;" edge="1" parent="1" source="TYD1DtTi4bZ0jpeWZFOA-52" target="TYD1DtTi4bZ0jpeWZFOA-77">
          <mxGeometry relative="1" as="geometry" />
        </mxCell>
        <mxCell id="TYD1DtTi4bZ0jpeWZFOA-52" value="productor" style="rounded=0;whiteSpace=wrap;html=1;" vertex="1" parent="1">
          <mxGeometry x="660" y="860" width="120" height="60" as="geometry" />
        </mxCell>
        <mxCell id="TYD1DtTi4bZ0jpeWZFOA-68" value="" style="edgeStyle=none;orthogonalLoop=1;jettySize=auto;html=1;" edge="1" parent="1" source="TYD1DtTi4bZ0jpeWZFOA-54" target="TYD1DtTi4bZ0jpeWZFOA-65">
          <mxGeometry relative="1" as="geometry" />
        </mxCell>
        <mxCell id="TYD1DtTi4bZ0jpeWZFOA-54" value="Ingresar datos&lt;br&gt;Usuario" style="ellipse;whiteSpace=wrap;html=1;rounded=0;" vertex="1" parent="1">
          <mxGeometry x="230.5" y="790" width="120" height="80" as="geometry" />
        </mxCell>
        <mxCell id="TYD1DtTi4bZ0jpeWZFOA-55" value="2" style="text;html=1;strokeColor=none;fillColor=none;align=center;verticalAlign=middle;whiteSpace=wrap;rounded=0;" vertex="1" parent="1">
          <mxGeometry x="261" y="790" width="60" height="30" as="geometry" />
        </mxCell>
        <mxCell id="TYD1DtTi4bZ0jpeWZFOA-72" value="" style="edgeStyle=none;orthogonalLoop=1;jettySize=auto;html=1;" edge="1" parent="1" source="TYD1DtTi4bZ0jpeWZFOA-58" target="TYD1DtTi4bZ0jpeWZFOA-71">
          <mxGeometry relative="1" as="geometry" />
        </mxCell>
        <mxCell id="TYD1DtTi4bZ0jpeWZFOA-58" value="Solicitar datos del usuario" style="ellipse;whiteSpace=wrap;html=1;rounded=0;" vertex="1" parent="1">
          <mxGeometry x="230" y="900" width="120" height="80" as="geometry" />
        </mxCell>
        <mxCell id="TYD1DtTi4bZ0jpeWZFOA-59" value="2" style="text;html=1;strokeColor=none;fillColor=none;align=center;verticalAlign=middle;whiteSpace=wrap;rounded=0;" vertex="1" parent="1">
          <mxGeometry x="260.5" y="900" width="60" height="30" as="geometry" />
        </mxCell>
        <mxCell id="TYD1DtTi4bZ0jpeWZFOA-70" value="" style="edgeStyle=none;orthogonalLoop=1;jettySize=auto;html=1;" edge="1" parent="1" source="TYD1DtTi4bZ0jpeWZFOA-61" target="TYD1DtTi4bZ0jpeWZFOA-58">
          <mxGeometry relative="1" as="geometry" />
        </mxCell>
        <mxCell id="TYD1DtTi4bZ0jpeWZFOA-61" value="Datos cliente" style="text;html=1;strokeColor=none;fillColor=none;align=center;verticalAlign=middle;whiteSpace=wrap;rounded=0;" vertex="1" parent="1">
          <mxGeometry x="354" y="860" width="60" height="30" as="geometry" />
        </mxCell>
        <mxCell id="TYD1DtTi4bZ0jpeWZFOA-62" value="" style="endArrow=none;html=1;rounded=0;entryX=1;entryY=0;entryDx=0;entryDy=0;exitX=0;exitY=0;exitDx=0;exitDy=0;" edge="1" parent="1" source="TYD1DtTi4bZ0jpeWZFOA-61" target="TYD1DtTi4bZ0jpeWZFOA-61">
          <mxGeometry width="50" height="50" relative="1" as="geometry">
            <mxPoint x="334" y="980" as="sourcePoint" />
            <mxPoint x="384" y="930" as="targetPoint" />
          </mxGeometry>
        </mxCell>
        <mxCell id="TYD1DtTi4bZ0jpeWZFOA-63" value="" style="endArrow=none;html=1;rounded=0;entryX=1;entryY=0;entryDx=0;entryDy=0;exitX=0;exitY=0;exitDx=0;exitDy=0;" edge="1" parent="1">
          <mxGeometry width="50" height="50" relative="1" as="geometry">
            <mxPoint x="354" y="890" as="sourcePoint" />
            <mxPoint x="414" y="890" as="targetPoint" />
          </mxGeometry>
        </mxCell>
        <mxCell id="TYD1DtTi4bZ0jpeWZFOA-69" value="" style="edgeStyle=none;orthogonalLoop=1;jettySize=auto;html=1;" edge="1" parent="1" source="TYD1DtTi4bZ0jpeWZFOA-65" target="TYD1DtTi4bZ0jpeWZFOA-61">
          <mxGeometry relative="1" as="geometry" />
        </mxCell>
        <mxCell id="TYD1DtTi4bZ0jpeWZFOA-65" value="Enviar datos server" style="ellipse;whiteSpace=wrap;html=1;rounded=0;" vertex="1" parent="1">
          <mxGeometry x="384" y="760" width="120" height="80" as="geometry" />
        </mxCell>
        <mxCell id="TYD1DtTi4bZ0jpeWZFOA-66" value="2" style="text;html=1;strokeColor=none;fillColor=none;align=center;verticalAlign=middle;whiteSpace=wrap;rounded=0;" vertex="1" parent="1">
          <mxGeometry x="414" y="760" width="60" height="30" as="geometry" />
        </mxCell>
        <mxCell id="TYD1DtTi4bZ0jpeWZFOA-76" style="edgeStyle=none;orthogonalLoop=1;jettySize=auto;html=1;entryX=0.062;entryY=0.751;entryDx=0;entryDy=0;entryPerimeter=0;" edge="1" parent="1" source="TYD1DtTi4bZ0jpeWZFOA-71" target="TYD1DtTi4bZ0jpeWZFOA-74">
          <mxGeometry relative="1" as="geometry">
            <mxPoint x="493.24" y="932.7999999999997" as="sourcePoint" />
          </mxGeometry>
        </mxCell>
        <mxCell id="TYD1DtTi4bZ0jpeWZFOA-71" value="ver lista pinturas" style="ellipse;whiteSpace=wrap;html=1;" vertex="1" parent="1">
          <mxGeometry x="370" y="930" width="120" height="80" as="geometry" />
        </mxCell>
        <mxCell id="TYD1DtTi4bZ0jpeWZFOA-73" value="2" style="text;html=1;strokeColor=none;fillColor=none;align=center;verticalAlign=middle;whiteSpace=wrap;rounded=0;" vertex="1" parent="1">
          <mxGeometry x="400" y="930" width="60" height="30" as="geometry" />
        </mxCell>
        <mxCell id="TYD1DtTi4bZ0jpeWZFOA-74" value="elegir pintura deseada" style="ellipse;whiteSpace=wrap;html=1;" vertex="1" parent="1">
          <mxGeometry x="490" y="870" width="120" height="80" as="geometry" />
        </mxCell>
        <mxCell id="TYD1DtTi4bZ0jpeWZFOA-75" value="2" style="text;html=1;strokeColor=none;fillColor=none;align=center;verticalAlign=middle;whiteSpace=wrap;rounded=0;" vertex="1" parent="1">
          <mxGeometry x="520" y="870" width="60" height="30" as="geometry" />
        </mxCell>
        <mxCell id="TYD1DtTi4bZ0jpeWZFOA-88" style="edgeStyle=none;orthogonalLoop=1;jettySize=auto;html=1;exitX=0;exitY=0;exitDx=0;exitDy=0;entryX=0.997;entryY=0.642;entryDx=0;entryDy=0;entryPerimeter=0;" edge="1" parent="1" source="TYD1DtTi4bZ0jpeWZFOA-77" target="TYD1DtTi4bZ0jpeWZFOA-80">
          <mxGeometry relative="1" as="geometry">
            <mxPoint x="632.426406871193" y="773.2842712474617" as="targetPoint" />
          </mxGeometry>
        </mxCell>
        <mxCell id="TYD1DtTi4bZ0jpeWZFOA-77" value="ingresar datos pintura" style="ellipse;whiteSpace=wrap;html=1;rounded=0;" vertex="1" parent="1">
          <mxGeometry x="620" y="760" width="120" height="80" as="geometry" />
        </mxCell>
        <mxCell id="TYD1DtTi4bZ0jpeWZFOA-78" value="2" style="text;html=1;strokeColor=none;fillColor=none;align=center;verticalAlign=middle;whiteSpace=wrap;rounded=0;" vertex="1" parent="1">
          <mxGeometry x="650" y="760" width="60" height="30" as="geometry" />
        </mxCell>
        <mxCell id="TYD1DtTi4bZ0jpeWZFOA-85" value="" style="edgeStyle=none;orthogonalLoop=1;jettySize=auto;html=1;" edge="1" parent="1" source="TYD1DtTi4bZ0jpeWZFOA-80" target="TYD1DtTi4bZ0jpeWZFOA-82">
          <mxGeometry relative="1" as="geometry" />
        </mxCell>
        <mxCell id="TYD1DtTi4bZ0jpeWZFOA-80" value="subir datos pintura" style="ellipse;whiteSpace=wrap;html=1;" vertex="1" parent="1">
          <mxGeometry x="490" y="710" width="120" height="80" as="geometry" />
        </mxCell>
        <mxCell id="TYD1DtTi4bZ0jpeWZFOA-81" value="2" style="text;html=1;strokeColor=none;fillColor=none;align=center;verticalAlign=middle;whiteSpace=wrap;rounded=0;" vertex="1" parent="1">
          <mxGeometry x="520" y="710" width="60" height="30" as="geometry" />
        </mxCell>
        <mxCell id="TYD1DtTi4bZ0jpeWZFOA-89" value="" style="edgeStyle=none;orthogonalLoop=1;jettySize=auto;html=1;" edge="1" parent="1" source="TYD1DtTi4bZ0jpeWZFOA-82" target="TYD1DtTi4bZ0jpeWZFOA-75">
          <mxGeometry relative="1" as="geometry" />
        </mxCell>
        <mxCell id="TYD1DtTi4bZ0jpeWZFOA-82" value="pinturas" style="text;html=1;strokeColor=none;fillColor=none;align=center;verticalAlign=middle;whiteSpace=wrap;rounded=0;" vertex="1" parent="1">
          <mxGeometry x="519" y="815" width="60" height="30" as="geometry" />
        </mxCell>
        <mxCell id="TYD1DtTi4bZ0jpeWZFOA-83" value="" style="endArrow=none;html=1;rounded=0;entryX=1;entryY=0;entryDx=0;entryDy=0;exitX=0;exitY=0;exitDx=0;exitDy=0;" edge="1" parent="1" source="TYD1DtTi4bZ0jpeWZFOA-82" target="TYD1DtTi4bZ0jpeWZFOA-82">
          <mxGeometry width="50" height="50" relative="1" as="geometry">
            <mxPoint x="499" y="935" as="sourcePoint" />
            <mxPoint x="549" y="885" as="targetPoint" />
          </mxGeometry>
        </mxCell>
        <mxCell id="TYD1DtTi4bZ0jpeWZFOA-84" value="" style="endArrow=none;html=1;rounded=0;entryX=1;entryY=0;entryDx=0;entryDy=0;exitX=0;exitY=0;exitDx=0;exitDy=0;" edge="1" parent="1">
          <mxGeometry width="50" height="50" relative="1" as="geometry">
            <mxPoint x="519" y="845" as="sourcePoint" />
            <mxPoint x="579" y="845" as="targetPoint" />
          </mxGeometry>
        </mxCell>
      </root>
    </mxGraphModel>
  </diagram>
</mxfile>
